<svg xmlns="http://www.w3.org/2000/svg" width="420" height="380" viewBox="0 0 420 380" fill="none" role="img" aria-labelledby="title"><title id="title">Hi, I’m Raghav. Full-stack applications, AI workflows, and hackathons.</title><g font-family="-apple-system, BlinkMacSystemFont, 'Segoe UI', Helvetica, Arial, sans-serif"><defs><linearGradient id="ink" x1="0" y1="0" x2="1" y2="0"><stop stop-color="#2869a4"/><stop offset="1" stop-color="#237d72"/></linearGradient></defs><style>
    .wave{transform-box:fill-box;transform-origin:50% 90%;animation:wave 5s ease-in-out infinite}
    .cursor{animation:cursor 1.4s step-end infinite}
    .phrase{animation:phrase 18s ease-in-out infinite}
    .phrase.second{animation-delay:-12s}.phrase.third{animation-delay:-6s}
    @keyframes wave{0%,35%,100%{transform:rotate(0)}5%,15%,25%{transform:rotate(16deg)}10%,20%,30%{transform:rotate(-10deg)}}
    @keyframes cursor{50%{opacity:0}}
    @keyframes phrase{0%,27%,100%{opacity:1;transform:translateY(0)}31%,96%{opacity:0;transform:translateY(-5px)}97%{opacity:0;transform:translateY(5px)}}
    @media(prefers-reduced-motion:reduce){.wave,.cursor,.phrase{animation:none}.phrase.second,.phrase.third{opacity:0}}
    </style><style>.eyes{animation:blink 7s step-end infinite}@keyframes blink{95%,97%{opacity:0}}@media(prefers-reduced-motion:reduce){.eyes{animation:none}}</style><rect x="5" y="7" width="411" height="370" rx="18" fill="#c9dce8"/><rect x="1" y="1" width="412" height="370" rx="18" fill="#f2f8fc" stroke="#46697e" stroke-width="2"/><path d="M2 39H412" stroke="#46697e"/><circle cx="19" cy="20" r="4" fill="#8bbddd"/><circle cx="35" cy="20" r="4" fill="#f6cf69"/><circle cx="51" cy="20" r="4" fill="#a1d7b0"/><text x="71" y="24" fill="#4c6e83" font-size="10" font-weight="600" >raghav’s little internet garden</text><text x="23" y="92" fill="#19364b" font-size="39" font-weight="750" letter-spacing="-1">hi, i&#x27;m</text><text x="20" y="161" fill="url(#ink)" font-size="68" font-weight="800" letter-spacing="-3">Raghav.</text><rect class="cursor" x="266" y="157" width="22" height="5" rx="2" fill="#237d72"/><g class="wave"><g transform="translate(231 61) scale(0.75)"><path d="M8 24V10a3 3 0 0 1 6 0v11V5a3 3 0 0 1 6 0v16V8a3 3 0 0 1 6 0v15V14a3 3 0 0 1 6 0v21q0 12-12 12h-5q-5 0-8-6L1 30q-3-5 1-7q3-1 6 1Z" fill="#f6d277" stroke="#806535" stroke-width="2" stroke-linejoin="round"/><path d="M10 29q9-4 15 2" fill="none" stroke="#bd964e" stroke-width="2" stroke-linecap="round"/></g></g><text x="24" y="192" fill="#4c6e83" font-size="18" font-weight="500" class="phrase first" opacity="1">Thoughtful code. A little imagination.</text><text x="24" y="192" fill="#4c6e83" font-size="18" font-weight="500" class="phrase second" opacity="0">From a small idea to a useful workflow.</text><text x="24" y="192" fill="#4c6e83" font-size="18" font-weight="500" class="phrase third" opacity="0">Learning, building, getting better.</text><rect x="24" y="210" width="103" height="26" rx="13" fill="#dcecf8"/><text x="75.5" y="227" fill="#19364b" font-size="11" font-weight="600" text-anchor="middle">full-stack</text><rect x="135" y="210" width="113" height="26" rx="13" fill="#c9e9d9"/><text x="191.5" y="227" fill="#19364b" font-size="11" font-weight="600" text-anchor="middle">AI workflows</text><rect x="256" y="210" width="118" height="26" rx="13" fill="#ffe5a1"/><text x="315.0" y="227" fill="#19364b" font-size="11" font-weight="600" text-anchor="middle">hackathons</text><svg x="82" y="246" width="252" height="95" viewBox="550 137 380 185"><rect xmlns="http://www.w3.org/2000/svg" x="639" y="142" width="210" height="140" rx="13" fill="#8bbbd8" stroke="#46697e" stroke-width="3" /><rect xmlns="http://www.w3.org/2000/svg" x="652" y="155" width="184" height="107" rx="5" fill="#d7efe2" stroke="#46697e" stroke-width="2" /><g xmlns="http://www.w3.org/2000/svg" class="eyes"><rect x="704" y="193" width="10" height="17" rx="4" fill="#46697e" /><rect x="774" y="193" width="10" height="17" rx="4" fill="#46697e" /></g><ellipse xmlns="http://www.w3.org/2000/svg" cx="695" cy="217" rx="11" ry="5" fill="#edd294" /><ellipse xmlns="http://www.w3.org/2000/svg" cx="793" cy="217" rx="11" ry="5" fill="#edd294" /><path xmlns="http://www.w3.org/2000/svg" d="M730 214Q744 230 758 214" fill="none" stroke="#46697e" stroke-width="3" stroke-linecap="round" /><path xmlns="http://www.w3.org/2000/svg" d="M639 282L618 305H869L849 282Z" fill="#c3ddeb" stroke="#46697e" stroke-width="3" stroke-linejoin="round" /><path xmlns="http://www.w3.org/2000/svg" d="M727 286H761L770 296H717Z" fill="#8bbbd8" /><path xmlns="http://www.w3.org/2000/svg" d="M578 318H903" stroke="#6eb298" stroke-width="3" stroke-dasharray="4 3" /><g xmlns="http://www.w3.org/2000/svg" transform="translate(586 276) scale(4)" shape-rendering="crispEdges"><rect x="1" y="1" width="1" height="1" fill="#6cad8c" /><rect x="2" y="1" width="1" height="1" fill="#6cad8c" /><rect x="1" y="2" width="1" height="1" fill="#6cad8c" /><rect x="2" y="2" width="1" height="1" fill="#6cad8c" /><rect x="3" y="2" width="1" height="1" fill="#6cad8c" /><rect x="3" y="3" width="1" height="1" fill="#6cad8c" /><rect x="3" y="4" width="1" height="1" fill="#6cad8c" /><rect x="4" y="4" width="1" height="1" fill="#6cad8c" /><rect x="5" y="4" width="1" height="1" fill="#6cad8c" /><rect x="3" y="5" width="1" height="1" fill="#6cad8c" /><rect x="4" y="5" width="1" height="1" fill="#6cad8c" /><rect x="3" y="6" width="1" height="1" fill="#6cad8c" /><rect x="2" y="7" width="1" height="1" fill="#bd9160" /><rect x="3" y="7" width="1" height="1" fill="#bd9160" /><rect x="4" y="7" width="1" height="1" fill="#bd9160" /><rect x="5" y="7" width="1" height="1" fill="#bd9160" /><rect x="2" y="8" width="1" height="1" fill="#bd9160" /><rect x="3" y="8" width="1" height="1" fill="#bd9160" /><rect x="4" y="8" width="1" height="1" fill="#bd9160" /><rect x="5" y="8" width="1" height="1" fill="#bd9160" /></g><g xmlns="http://www.w3.org/2000/svg" transform="translate(878 270) scale(5)" shape-rendering="crispEdges"><rect x="1" y="1" width="1" height="1" fill="#6cad8c" /><rect x="2" y="1" width="1" height="1" fill="#6cad8c" /><rect x="1" y="2" width="1" height="1" fill="#6cad8c" /><rect x="2" y="2" width="1" height="1" fill="#6cad8c" /><rect x="3" y="2" width="1" height="1" fill="#6cad8c" /><rect x="3" y="3" width="1" height="1" fill="#6cad8c" /><rect x="3" y="4" width="1" height="1" fill="#6cad8c" /><rect x="4" y="4" width="1" height="1" fill="#6cad8c" /><rect x="5" y="4" width="1" height="1" fill="#6cad8c" /><rect x="3" y="5" width="1" height="1" fill="#6cad8c" /><rect x="4" y="5" width="1" height="1" fill="#6cad8c" /><rect x="3" y="6" width="1" height="1" fill="#6cad8c" /><rect x="2" y="7" width="1" height="1" fill="#bd9160" /><rect x="3" y="7" width="1" height="1" fill="#bd9160" /><rect x="4" y="7" width="1" height="1" fill="#bd9160" /><rect x="5" y="7" width="1" height="1" fill="#bd9160" /><rect x="2" y="8" width="1" height="1" fill="#bd9160" /><rect x="3" y="8" width="1" height="1" fill="#bd9160" /><rect x="4" y="8" width="1" height="1" fill="#bd9160" /><rect x="5" y="8" width="1" height="1" fill="#bd9160" /></g><g xmlns="http://www.w3.org/2000/svg" transform="translate(570 223) scale(4)" shape-rendering="crispEdges"><rect x="1" y="0" width="1" height="1" fill="#446b85" /><rect x="2" y="0" width="1" height="1" fill="#446b85" /><rect x="8" y="0" width="1" height="1" fill="#446b85" /><rect x="9" y="0" width="1" height="1" fill="#446b85" /><rect x="1" y="1" width="1" height="1" fill="#446b85" /><rect x="2" y="1" width="1" height="1" fill="#bbdcef" /><rect x="3" y="1" width="1" height="1" fill="#446b85" /><rect x="7" y="1" width="1" height="1" fill="#446b85" /><rect x="8" y="1" width="1" height="1" fill="#bbdcef" /><rect x="9" y="1" width="1" height="1" fill="#446b85" /><rect x="1" y="2" width="1" height="1" fill="#446b85" /><rect x="2" y="2" width="1" height="1" fill="#bbdcef" /><rect x="3" y="2" width="1" height="1" fill="#bbdcef" /><rect x="4" y="2" width="1" height="1" fill="#bbdcef" /><rect x="5" y="2" width="1" height="1" fill="#bbdcef" /><rect x="6" y="2" width="1" height="1" fill="#bbdcef" /><rect x="7" y="2" width="1" height="1" fill="#bbdcef" /><rect x="8" y="2" width="1" height="1" fill="#bbdcef" /><rect x="9" y="2" width="1" height="1" fill="#446b85" /><rect x="1" y="3" width="1" height="1" fill="#446b85" /><rect x="2" y="3" width="1" height="1" fill="#bbdcef" /><rect x="3" y="3" width="1" height="1" fill="#bbdcef" /><rect x="4" y="3" width="1" height="1" fill="#bbdcef" /><rect x="5" y="3" width="1" height="1" fill="#446b85" /><rect x="6" y="3" width="1" height="1" fill="#bbdcef" /><rect x="7" y="3" width="1" height="1" fill="#bbdcef" /><rect x="8" y="3" width="1" height="1" fill="#446b85" /><rect x="9" y="3" width="1" height="1" fill="#446b85" /><rect x="1" y="4" width="1" height="1" fill="#446b85" /><rect x="2" y="4" width="1" height="1" fill="#bbdcef" /><rect x="3" y="4" width="1" height="1" fill="#19364b" /><rect x="4" y="4" width="1" height="1" fill="#bbdcef" /><rect x="5" y="4" width="1" height="1" fill="#bbdcef" /><rect x="6" y="4" width="1" height="1" fill="#bbdcef" /><rect x="7" y="4" width="1" height="1" fill="#19364b" /><rect x="8" y="4" width="1" height="1" fill="#bbdcef" /><rect x="9" y="4" width="1" height="1" fill="#446b85" /><rect x="1" y="5" width="1" height="1" fill="#446b85" /><rect x="2" y="5" width="1" height="1" fill="#bbdcef" /><rect x="3" y="5" width="1" height="1" fill="#bbdcef" /><rect x="4" y="5" width="1" height="1" fill="#bbdcef" /><rect x="5" y="5" width="1" height="1" fill="#bbdcef" /><rect x="6" y="5" width="1" height="1" fill="#bbdcef" /><rect x="7" y="5" width="1" height="1" fill="#bbdcef" /><rect x="8" y="5" width="1" height="1" fill="#bbdcef" /><rect x="9" y="5" width="1" height="1" fill="#446b85" /><rect x="2" y="6" width="1" height="1" fill="#446b85" /><rect x="3" y="6" width="1" height="1" fill="#bbdcef" /><rect x="4" y="6" width="1" height="1" fill="#bbdcef" /><rect x="5" y="6" width="1" height="1" fill="#e9be66" /><rect x="6" y="6" width="1" height="1" fill="#bbdcef" /><rect x="7" y="6" width="1" height="1" fill="#bbdcef" /><rect x="8" y="6" width="1" height="1" fill="#446b85" /><rect x="2" y="7" width="1" height="1" fill="#446b85" /><rect x="3" y="7" width="1" height="1" fill="#446b85" /><rect x="4" y="7" width="1" height="1" fill="#446b85" /><rect x="5" y="7" width="1" height="1" fill="#446b85" /><rect x="6" y="7" width="1" height="1" fill="#446b85" /><rect x="7" y="7" width="1" height="1" fill="#446b85" /><rect x="8" y="7" width="1" height="1" fill="#446b85" /><rect x="1" y="8" width="1" height="1" fill="#446b85" /><rect x="2" y="8" width="1" height="1" fill="#bbdcef" /><rect x="3" y="8" width="1" height="1" fill="#bbdcef" /><rect x="4" y="8" width="1" height="1" fill="#bbdcef" /><rect x="5" y="8" width="1" height="1" fill="#bbdcef" /><rect x="6" y="8" width="1" height="1" fill="#446b85" /><rect x="7" y="8" width="1" height="1" fill="#bbdcef" /><rect x="8" y="8" width="1" height="1" fill="#bbdcef" /><rect x="9" y="8" width="1" height="1" fill="#446b85" /><rect x="1" y="9" width="1" height="1" fill="#446b85" /><rect x="2" y="9" width="1" height="1" fill="#bbdcef" /><rect x="3" y="9" width="1" height="1" fill="#bbdcef" /><rect x="4" y="9" width="1" height="1" fill="#bbdcef" /><rect x="5" y="9" width="1" height="1" fill="#bbdcef" /><rect x="6" y="9" width="1" height="1" fill="#446b85" /><rect x="7" y="9" width="1" height="1" fill="#bbdcef" /><rect x="8" y="9" width="1" height="1" fill="#bbdcef" /><rect x="9" y="9" width="1" height="1" fill="#446b85" /><rect x="2" y="10" width="1" height="1" fill="#446b85" /><rect x="3" y="10" width="1" height="1" fill="#446b85" /><rect x="7" y="10" width="1" height="1" fill="#446b85" /><rect x="8" y="10" width="1" height="1" fill="#446b85" /></g><g xmlns="http://www.w3.org/2000/svg" class="spark"><g transform="translate(866 169) scale(3)" shape-rendering="crispEdges"><rect x="2" y="0" width="1" height="1" fill="#6399b8" /><rect x="2" y="1" width="1" height="1" fill="#6399b8" /><rect x="0" y="2" width="1" height="1" fill="#6399b8" /><rect x="1" y="2" width="1" height="1" fill="#6399b8" /><rect x="2" y="2" width="1" height="1" fill="#6399b8" /><rect x="3" y="2" width="1" height="1" fill="#6399b8" /><rect x="4" y="2" width="1" height="1" fill="#6399b8" /><rect x="2" y="3" width="1" height="1" fill="#6399b8" /><rect x="2" y="4" width="1" height="1" fill="#6399b8" /></g><g transform="translate(610 158) scale(2)" shape-rendering="crispEdges"><rect x="2" y="0" width="1" height="1" fill="#d2a03c" /><rect x="2" y="1" width="1" height="1" fill="#d2a03c" /><rect x="0" y="2" width="1" height="1" fill="#d2a03c" /><rect x="1" y="2" width="1" height="1" fill="#d2a03c" /><rect x="2" y="2" width="1" height="1" fill="#d2a03c" /><rect x="3" y="2" width="1" height="1" fill="#d2a03c" /><rect x="4" y="2" width="1" height="1" fill="#d2a03c" /><rect x="2" y="3" width="1" height="1" fill="#d2a03c" /><rect x="2" y="4" width="1" height="1" fill="#d2a03c" /></g><g transform="translate(807 108) scale(2)" shape-rendering="crispEdges"><rect x="2" y="0" width="1" height="1" fill="#6399b8" /><rect x="2" y="1" width="1" height="1" fill="#6399b8" /><rect x="0" y="2" width="1" height="1" fill="#6399b8" /><rect x="1" y="2" width="1" height="1" fill="#6399b8" /><rect x="2" y="2" width="1" height="1" fill="#6399b8" /><rect x="3" y="2" width="1" height="1" fill="#6399b8" /><rect x="4" y="2" width="1" height="1" fill="#6399b8" /><rect x="2" y="3" width="1" height="1" fill="#6399b8" /><rect x="2" y="4" width="1" height="1" fill="#6399b8" /></g></g></svg><text x="207" y="354" fill="#4c6e83" font-size="12" font-weight="500" text-anchor="middle">small ideas grow here.</text></g></svg>
