<svg xmlns="http://www.w3.org/2000/svg" width="600" height="300" viewBox="0 0 600 300" fill="none" role="img" aria-labelledby="title"><title id="title">RazorFlow. A second chance for a payment. Recovery decisions with explicit policy checks. policies · workers · audit trails. FastAPI / PostgreSQL / Celery</title><g font-family="-apple-system, BlinkMacSystemFont, 'Segoe UI', Helvetica, Arial, sans-serif"><rect x="8" y="8" width="580" height="284" rx="18" fill="#65532e"/><rect x="2" y="2" width="580" height="284" rx="16" fill="#302919" stroke="#527287" stroke-width="1.7"/><text x="28" y="36" fill="#9fb8ca" font-size="12" font-weight="600" font-family="'SFMono-Regular', Consolas, 'Liberation Mono', monospace" letter-spacing=".5">03 / TEST-MODE PROJECT</text><rect x="487" y="19" width="73" height="73" rx="18" fill="#65532e"/><g transform="translate(523 56) scale(.62)"><path d="M-34 22Q-45 -22 -9 -22Q28 -22 7 4Q-10 30 32 28" stroke="#d1e3ef" stroke-width="2.4" stroke-linecap="round" stroke-linejoin="round"/><path d="M24 17L36 28L24 39" stroke="#d1e3ef" stroke-width="2.4" stroke-linecap="round" stroke-linejoin="round"/><circle cx="-34" cy="22" r="6" fill="#e1edf5"/></g><text x="26" y="96" fill="#e1edf5" font-size="43" font-weight="750" letter-spacing="-1.5">RazorFlow</text><text x="28" y="137" fill="#e1edf5" font-size="21" font-weight="650" >A second chance for a payment.</text><text x="28" y="169" fill="#9fb8ca" font-size="17" font-weight="400" >Recovery decisions with explicit policy checks.</text><text x="28" y="207" fill="#9fb8ca" font-size="14" font-weight="500" >policies · workers · audit trails</text><path d="M28 225H554" stroke="#527287" stroke-opacity=".16"/><text x="28" y="258" fill="#e1edf5" font-size="15" font-weight="500" font-family="'SFMono-Regular', Consolas, 'Liberation Mono', monospace">FastAPI / PostgreSQL / Celery</text><text x="545" y="258" fill="#e1edf5" font-size="25" font-weight="600" >↗</text></g></svg>
