<svg xmlns="http://www.w3.org/2000/svg" width="420" height="246" viewBox="0 0 420 246" fill="none" role="img" aria-labelledby="title"><title id="title">Raghav Fact of the Day — 08 Oct 2026 · IST. Playful fictional developer humor: Raghav’s missing semicolon was found living peacefully three files away.</title><g font-family="-apple-system, BlinkMacSystemFont, 'Segoe UI', Helvetica, Arial, sans-serif"><style>.think{animation:think 5s ease-in-out infinite}.spark{animation:spark 4s ease-in-out infinite}@keyframes think{50%{transform:translateY(-4px)}}@keyframes spark{50%{opacity:.35}}@media(prefers-reduced-motion:reduce){.think,.spark{animation:none}}</style><rect x="2" y="2" width="416" height="242" rx="19" fill="#fff8e9" stroke="#e5d09f" stroke-width="1.5"/><text x="23" y="30" fill="#a27b23" font-size="9" font-weight="700" letter-spacing="1.5">PLAYFUL DEVELOPER LORE</text><text x="21" y="71" fill="#19364b" font-size="26" font-weight="750" letter-spacing="-.8">Raghav Fact of the Day.</text><text x="23" y="106" fill="#19364b" font-size="19" font-weight="550" >Raghav’s missing semicolon</text><text x="23" y="135" fill="#19364b" font-size="19" font-weight="550" >was found living peacefully</text><text x="23" y="164" fill="#19364b" font-size="19" font-weight="550" >three files away.</text><text x="23" y="224" fill="#6f715c" font-size="11" font-weight="550" >08 Oct 2026 · IST</text><g class="think"><g transform="translate(355 17) scale(2.5)" shape-rendering="crispEdges"><rect x="1" y="0" width="1" height="1" fill="#446b85"/><rect x="2" y="0" width="1" height="1" fill="#446b85"/><rect x="8" y="0" width="1" height="1" fill="#446b85"/><rect x="9" y="0" width="1" height="1" fill="#446b85"/><rect x="1" y="1" width="1" height="1" fill="#446b85"/><rect x="2" y="1" width="1" height="1" fill="#bbdcef"/><rect x="3" y="1" width="1" height="1" fill="#446b85"/><rect x="7" y="1" width="1" height="1" fill="#446b85"/><rect x="8" y="1" width="1" height="1" fill="#bbdcef"/><rect x="9" y="1" width="1" height="1" fill="#446b85"/><rect x="1" y="2" width="1" height="1" fill="#446b85"/><rect x="2" y="2" width="1" height="1" fill="#bbdcef"/><rect x="3" y="2" width="1" height="1" fill="#bbdcef"/><rect x="4" y="2" width="1" height="1" fill="#bbdcef"/><rect x="5" y="2" width="1" height="1" fill="#bbdcef"/><rect x="6" y="2" width="1" height="1" fill="#bbdcef"/><rect x="7" y="2" width="1" height="1" fill="#bbdcef"/><rect x="8" y="2" width="1" height="1" fill="#bbdcef"/><rect x="9" y="2" width="1" height="1" fill="#446b85"/><rect x="1" y="3" width="1" height="1" fill="#446b85"/><rect x="2" y="3" width="1" height="1" fill="#bbdcef"/><rect x="3" y="3" width="1" height="1" fill="#bbdcef"/><rect x="4" y="3" width="1" height="1" fill="#bbdcef"/><rect x="5" y="3" width="1" height="1" fill="#446b85"/><rect x="6" y="3" width="1" height="1" fill="#bbdcef"/><rect x="7" y="3" width="1" height="1" fill="#bbdcef"/><rect x="8" y="3" width="1" height="1" fill="#446b85"/><rect x="9" y="3" width="1" height="1" fill="#446b85"/><rect x="1" y="4" width="1" height="1" fill="#446b85"/><rect x="2" y="4" width="1" height="1" fill="#bbdcef"/><rect x="3" y="4" width="1" height="1" fill="#19364b"/><rect x="4" y="4" width="1" height="1" fill="#bbdcef"/><rect x="5" y="4" width="1" height="1" fill="#bbdcef"/><rect x="6" y="4" width="1" height="1" fill="#bbdcef"/><rect x="7" y="4" width="1" height="1" fill="#19364b"/><rect x="8" y="4" width="1" height="1" fill="#bbdcef"/><rect x="9" y="4" width="1" height="1" fill="#446b85"/><rect x="1" y="5" width="1" height="1" fill="#446b85"/><rect x="2" y="5" width="1" height="1" fill="#bbdcef"/><rect x="3" y="5" width="1" height="1" fill="#bbdcef"/><rect x="4" y="5" width="1" height="1" fill="#bbdcef"/><rect x="5" y="5" width="1" height="1" fill="#bbdcef"/><rect x="6" y="5" width="1" height="1" fill="#bbdcef"/><rect x="7" y="5" width="1" height="1" fill="#bbdcef"/><rect x="8" y="5" width="1" height="1" fill="#bbdcef"/><rect x="9" y="5" width="1" height="1" fill="#446b85"/><rect x="2" y="6" width="1" height="1" fill="#446b85"/><rect x="3" y="6" width="1" height="1" fill="#bbdcef"/><rect x="4" y="6" width="1" height="1" fill="#bbdcef"/><rect x="5" y="6" width="1" height="1" fill="#e9be66"/><rect x="6" y="6" width="1" height="1" fill="#bbdcef"/><rect x="7" y="6" width="1" height="1" fill="#bbdcef"/><rect x="8" y="6" width="1" height="1" fill="#446b85"/><rect x="2" y="7" width="1" height="1" fill="#446b85"/><rect x="3" y="7" width="1" height="1" fill="#446b85"/><rect x="4" y="7" width="1" height="1" fill="#446b85"/><rect x="5" y="7" width="1" height="1" fill="#446b85"/><rect x="6" y="7" width="1" height="1" fill="#446b85"/><rect x="7" y="7" width="1" height="1" fill="#446b85"/><rect x="8" y="7" width="1" height="1" fill="#446b85"/><rect x="1" y="8" width="1" height="1" fill="#446b85"/><rect x="2" y="8" width="1" height="1" fill="#bbdcef"/><rect x="3" y="8" width="1" height="1" fill="#bbdcef"/><rect x="4" y="8" width="1" height="1" fill="#bbdcef"/><rect x="5" y="8" width="1" height="1" fill="#bbdcef"/><rect x="6" y="8" width="1" height="1" fill="#446b85"/><rect x="7" y="8" width="1" height="1" fill="#bbdcef"/><rect x="8" y="8" width="1" height="1" fill="#bbdcef"/><rect x="9" y="8" width="1" height="1" fill="#446b85"/><rect x="1" y="9" width="1" height="1" fill="#446b85"/><rect x="2" y="9" width="1" height="1" fill="#bbdcef"/><rect x="3" y="9" width="1" height="1" fill="#bbdcef"/><rect x="4" y="9" width="1" height="1" fill="#bbdcef"/><rect x="5" y="9" width="1" height="1" fill="#bbdcef"/><rect x="6" y="9" width="1" height="1" fill="#446b85"/><rect x="7" y="9" width="1" height="1" fill="#bbdcef"/><rect x="8" y="9" width="1" height="1" fill="#bbdcef"/><rect x="9" y="9" width="1" height="1" fill="#446b85"/><rect x="2" y="10" width="1" height="1" fill="#446b85"/><rect x="3" y="10" width="1" height="1" fill="#446b85"/><rect x="7" y="10" width="1" height="1" fill="#446b85"/><rect x="8" y="10" width="1" height="1" fill="#446b85"/></g></g><text x="335" y="33" fill="#a27b23" font-size="22" font-weight="700" class="spark" font-family="'SFMono-Regular', Consolas, 'Liberation Mono', monospace">;</text></g></svg>
